<svg width="20" height="20" viewBox="0 0 20 20" fill="none" xmlns="http://www.w3.org/2000/svg">
<path d="M7.27455 0H5.45273V2.0038H7.27455V0ZM10.9109 0H9.08909V2.0038H10.9109V0ZM14.5473 0H12.7255V2.0038H14.5473V0ZM7.27273 8.0012V3.0017H5.45455V8.0012H1.81818V13.0007H4.69273L7.27273 13.9466L10 12.9467L12.7273 13.9466L15.3073 13.0007H18.1818V8.0012H14.5455V3.0017H12.7273V8.0012H10.9091V3.0017H9.09091V8.0012H7.27273ZM18.1818 15.0005H15.6018L12.7273 16.0544L10 15.0545L7.27273 16.0544L4.39818 15.0005H1.81818V18.0002H0V20H20V18.0002H18.1818V15.0005Z" fill="white"/>
</svg>
